HIERARCHY
ROOT hip
{
	OFFSET 0.000000 0.000000 0.000000 
	CHANNELS 6 Xposition Yposition Zposition Xrotation Zrotation Yrotation
	JOINT abdomen
	{
		OFFSET 0.000000 3.402643 0.000000 
		CHANNELS 3 Xrotation Zrotation Yrotation
		JOINT chest
		{
			OFFSET 0.000000 8.438565 -0.680529 
			CHANNELS 3 Xrotation Zrotation Yrotation
			JOINT neck
			{
				OFFSET 0.000000 10.207942 -0.272212 
				CHANNELS 3 Xrotation Zrotation Yrotation
				JOINT head
				{
					OFFSET 0.000000 3.130431 0.000000 
					CHANNELS 3 Xrotation Zrotation Yrotation
					End Site
					{
						OFFSET 0.000000 3.130435 0.000000 
					}
				}
			}
			JOINT lCollar
			{
				OFFSET 3.470700 6.669187 -0.816635 
				CHANNELS 3 Yrotation Zrotation Xrotation
				JOINT lShldr
				{
					OFFSET 3.198488 0.000000 0.000000 
					CHANNELS 3 Zrotation Yrotation Xrotation
					JOINT lForeArm
					{
						OFFSET 10.139888 0.000000 0.000000 
						CHANNELS 3 Yrotation Zrotation Xrotation
						JOINT lHand
						{
							OFFSET 8.370511 0.000000 0.000000 
							CHANNELS 3 Zrotation Yrotation Xrotation
							End Site
							{
								OFFSET 4.083176 0.000000 0.000000 
							}
						}
					}
				}
			}
			JOINT rCollar
			{
				OFFSET -3.470700 6.669187 -0.816635 
				CHANNELS 3 Yrotation Zrotation Xrotation
				JOINT rShldr
				{
					OFFSET -3.198488 0.000000 0.000000 
					CHANNELS 3 Zrotation Yrotation Xrotation
					JOINT rForeArm
					{
						OFFSET -10.139888 0.000000 0.000000 
						CHANNELS 3 Yrotation Zrotation Xrotation
						JOINT rHand
						{
							OFFSET -8.370511 0.000000 0.000000 
							CHANNELS 3 Zrotation Yrotation Xrotation
							End Site
							{
								OFFSET -4.083176 0.000000 0.000000 
							}
						}
					}
				}
			}
		}
	}
	JOINT lThigh
	{
		OFFSET 5.308129 -1.633274 1.361059 
		CHANNELS 3 Xrotation Zrotation Yrotation
		JOINT lShin
		{
			OFFSET -2.041588 -20.007561 0.000000 
			CHANNELS 3 Xrotation Zrotation Yrotation
			JOINT lFoot
			{
				OFFSET 0.000000 -19.190928 -1.224953 
				CHANNELS 3 Xrotation Yrotation Zrotation
				End Site
				{
					OFFSET 0.000000 -2.449906 4.627600 
				}
			}
		}
	}
	JOINT rThigh
	{
		OFFSET -5.308129 -1.633274 1.361059 
		CHANNELS 3 Xrotation Zrotation Yrotation
		JOINT rShin
		{
			OFFSET 2.041588 -20.007561 0.000000 
			CHANNELS 3 Xrotation Zrotation Yrotation
			JOINT rFoot
			{
				OFFSET 0.000000 -19.190928 -1.224953 
				CHANNELS 3 Xrotation Yrotation Zrotation
				End Site
				{
					OFFSET 0.000000 -2.449906 4.627600 
				}
			}
		}
	}
}
MOTION
Frames: 18
Frame Time: 0.016667
0.000000 23.247467 0.000000 36.728516 -0.722656 -28.320431 4.218750 -0.878906 1.152194 6.484375 -13.544922 -10.607756 -34.140629 6.103516 20.517580 1.367187 2.197265 2.607422 0.000000 0.000000 0.000000 -16.914063 1.630867 -49.091381 -54.628906 -4.765625 3.946124 8.925781 -6.269531 33.651276 0.000000 0.000000 0.000000 -2.285156 43.164063 -64.990234 32.668381 2.737702 4.419043 -2.265396 12.816937 -0.902212 -99.739243 -22.519329 15.213189 51.905201 -2.490035 -3.452669 -2.419071 -15.844717 12.088136 -92.314171 -41.275658 9.948971 69.474243 1.041310 4.692780 -45.133492 -1.671278 0.022490 
0.000000 23.001865 0.000000 36.230469 -2.285156 -25.400389 4.218750 -0.712891 0.986207 6.484375 -13.544922 -10.607756 -32.343750 5.625000 16.446270 1.542969 2.373036 2.080492 0.000000 0.000000 0.000000 -17.119141 -5.205079 -52.637608 -52.167969 -4.853515 4.004780 9.101562 -6.240234 34.355469 0.000000 0.000000 0.000000 -2.099609 43.515625 -64.973747 32.844193 2.744150 4.424657 -0.728814 15.243418 3.453989 -100.461868 -22.548628 16.061865 51.187744 -2.656191 -3.427825 -1.970617 -16.291145 10.211967 -94.953072 -40.739632 11.884787 71.405235 1.035125 4.849646 -44.897850 -3.694135 0.144766 
0.000000 22.775658 0.000000 35.761719 -3.720703 -22.549461 4.042969 -0.537109 0.839845 6.484375 -13.544922 -10.607756 -30.712889 5.117188 12.481340 1.728516 2.558594 1.542969 0.000000 0.000000 0.000000 -16.972656 -12.050781 -56.123047 -49.707031 -4.951172 4.073108 9.277345 -6.230469 35.233315 0.000000 0.000000 0.000000 -2.099609 43.876953 -64.973701 33.020725 2.731067 4.420487 0.965143 17.689241 7.679577 -101.219841 -22.694595 16.644712 50.467968 -2.781869 -3.469641 -1.506490 -16.815865 8.939113 -97.383980 -40.231991 14.252092 73.520355 1.015755 4.782001 -44.643337 -5.391060 -0.084343 
0.000000 22.549438 0.000000 35.117184 -5.039063 -19.365232 3.857421 -0.537109 0.664064 6.484375 -13.544922 -10.607756 -29.042969 4.775391 8.457846 1.904297 2.734375 0.840310 0.000000 0.000000 0.000000 -16.328127 -19.101563 -59.931637 -47.402344 -5.029297 4.141480 9.277345 -6.230469 35.936440 0.000000 0.000000 0.000000 -2.080078 44.228519 -64.970695 33.372711 2.734140 4.421849 2.887289 19.999205 12.272731 -102.143204 -22.519552 17.534519 50.139896 -2.669641 -3.395546 -1.158138 -17.581753 6.772397 -99.888344 -39.725559 15.560040 75.628510 0.498062 4.557430 -44.537003 -7.059972 0.118054 
-0.407894 22.433105 0.000000 34.814453 -5.791016 -17.579111 3.681640 -0.537109 0.478516 6.484375 -13.544922 -10.607756 -28.095701 4.443359 6.367943 2.070313 2.744124 0.498517 0.000000 0.000000 0.000000 -15.761719 -22.978516 -62.132721 -45.996094 -5.078125 4.189453 9.453124 -6.201172 36.464848 0.000000 0.000000 0.000000 -2.080078 44.570313 -64.963852 33.372711 2.734140 4.421849 4.015613 21.165516 14.891927 -102.478981 -22.695698 18.811300 50.297756 -2.640395 -3.384347 -0.932994 -17.774702 6.134230 -100.403053 -40.418152 16.309217 77.556030 0.488251 4.524415 -44.294579 -8.179862 0.466932 
-0.815789 22.316767 0.000000 34.355465 -6.689453 -16.006157 3.681640 -0.361328 0.498047 6.484375 -13.544922 -10.607756 -27.167967 4.423828 4.102316 2.070313 2.744124 0.322735 0.000000 0.000000 0.000000 -15.048828 -27.050781 -64.496620 -44.599613 -5.126953 4.228516 9.453124 -6.201172 36.816410 0.000000 0.000000 0.000000 -2.070312 44.755859 -64.954063 33.549236 2.721019 4.407855 5.348341 22.164860 17.753620 -102.958710 -22.539299 20.009016 50.974674 -2.745608 -3.307375 -0.825180 -18.272789 5.011926 -100.921150 -41.297161 16.951385 79.673607 0.478698 4.642345 -44.385242 -9.350446 0.500812 
-1.223682 22.206896 0.000000 34.052734 -7.314454 -14.073508 3.505859 -0.361328 0.322266 6.484375 -13.544922 -10.607756 -26.220703 4.228516 1.904297 2.246094 2.919922 -0.028799 0.000000 0.000000 0.000000 -14.042968 -30.947262 -67.182762 -43.183594 -5.185547 4.277344 9.453124 -6.201172 37.343754 0.000000 0.000000 0.000000 -2.070312 44.931641 -64.944275 33.549236 2.721019 4.407855 6.826834 23.359198 20.554089 -103.244087 -22.714628 21.836790 51.360855 -2.402346 -3.373065 -0.439649 -18.364325 4.282186 -101.426407 -41.970314 17.402164 81.780907 0.312728 4.642795 -44.082603 -10.376535 0.418915 
-1.223682 22.084093 0.000000 33.583984 -8.085938 -12.403718 3.505859 -0.361328 0.136719 6.484375 -13.544922 -10.607756 -25.244141 4.179688 -0.682882 2.246094 3.085938 -0.390099 0.000000 0.000000 0.000000 -12.685546 -34.853516 -69.741905 -41.767578 -5.224609 4.327061 9.638673 -6.191407 37.684494 0.000000 0.000000 0.000000 -2.070312 45.107422 -64.944252 33.725052 2.727402 4.413370 8.167089 24.351284 23.264555 -103.789406 -22.910271 23.489723 51.900185 -2.386920 -3.365683 -0.208938 -18.900280 3.139702 -101.923492 -42.907475 17.570843 83.695282 -0.032466 4.661869 -44.138287 -11.467686 0.496338 
-1.631576 21.954832 0.000000 33.300781 -8.857422 -10.548379 3.339844 -0.175781 0.146484 6.484375 -13.544922 -10.607756 -24.295221 4.159891 -2.939051 2.412109 3.085938 -0.731896 0.000000 0.000000 0.000000 -11.015625 -38.593750 -72.740463 -40.371094 -5.263672 4.366130 9.638673 -6.191407 38.211838 0.000000 0.000000 0.000000 -2.050781 45.458988 -64.934448 33.910995 2.724367 4.408861 9.682240 25.368727 26.139864 -104.106468 -22.911028 24.822300 52.091755 -2.367768 -3.225493 0.044999 -19.390615 2.063948 -102.704117 -43.573997 18.265274 85.820122 -0.058692 4.818650 -44.035412 -12.491903 0.259411 
-2.039470 21.832029 0.000000 32.832031 -9.501954 -8.720703 3.339844 -0.175781 -0.019531 6.484375 -13.544922 -10.607756 -23.320311 4.160156 -4.989526 2.587891 3.271484 -1.083984 0.000000 0.000000 0.000000 -9.072266 -42.353516 -76.129623 -38.955074 -5.302734 4.424731 9.814453 -6.162109 38.563404 0.000000 0.000000 0.000000 -1.884766 45.625000 -64.951172 33.910995 2.724367 4.408861 11.190998 26.380215 29.117537 -104.220863 -22.911200 26.297810 52.407864 -2.377296 -3.416873 0.115240 -19.790451 1.142374 -103.290848 -44.479813 18.951632 87.906662 -0.237154 4.805615 -43.867905 -13.681715 0.288827 
-2.039470 21.735081 0.000000 32.373047 -10.136718 -6.935311 3.164063 0.000000 0.000000 6.484375 -13.544922 -10.607756 -22.519531 4.287164 -7.490329 2.587891 3.271484 -1.435547 0.000000 0.000000 0.000000 -6.845703 -46.123043 -79.841026 -37.539063 -5.361329 4.473568 9.824219 -6.347656 39.090721 0.000000 0.000000 0.000000 -1.875000 45.800781 -64.931641 34.077396 2.720612 4.414576 12.923725 27.233751 32.015854 -104.943825 -22.920902 27.545456 52.759064 -2.582773 -3.374627 0.751148 -19.868843 0.037810 -103.859482 -45.193268 19.460545 89.840828 -0.595717 4.755891 -43.886711 -14.840997 0.344395 
-2.039470 22.458958 0.000000 32.636719 -9.365234 -6.847477 3.164063 0.000000 0.000000 6.484375 -13.544922 -10.607756 -22.890625 4.023438 -6.698534 2.587891 3.271484 -1.259766 0.000000 0.000000 0.000000 -8.515625 -44.833984 -77.008842 -39.833984 -5.292969 4.395432 10.957031 -6.933594 38.719524 0.000000 0.000000 0.000000 -1.875000 45.800781 -64.931641 34.077396 2.720612 4.414576 13.479609 25.314028 29.822123 -105.530159 -20.967516 25.151192 57.902657 -2.065666 -3.471939 -3.914966 -18.316273 -1.222242 -101.797211 -42.351254 18.664474 91.257713 -0.605574 4.501036 -45.747662 -14.946708 0.818595 
-2.039470 23.751598 0.000000 32.753910 -8.613282 -6.935056 3.164063 0.000000 0.000000 6.484375 -13.544922 -10.607756 -23.447264 3.759766 -5.741547 2.587891 3.085937 -1.250000 0.000000 0.000000 0.000000 -10.195313 -43.369144 -74.296875 -42.119141 -5.205078 4.317292 12.265625 -7.675781 38.369144 0.000000 0.000000 0.000000 -1.875000 45.800781 -64.931641 34.077396 2.720612 4.414576 14.192723 23.627758 27.289583 -106.107727 -18.858057 22.505003 62.956509 -1.734547 -3.649253 -8.484746 -16.095926 -2.287762 -99.935905 -39.559399 18.058229 92.824982 -0.771155 4.770884 -47.849976 -15.801292 0.426364 
-2.039470 24.940821 0.000000 32.851563 -7.861328 -6.983757 3.164063 0.000000 0.000000 6.484375 -13.544922 -10.607756 -24.013670 3.632813 -5.028677 2.587891 3.085937 -1.074219 0.000000 0.000000 0.000000 -11.718750 -41.904301 -71.630859 -44.238281 -5.146484 4.248047 13.417968 -8.437500 37.998047 0.000000 0.000000 0.000000 -1.875000 45.800781 -64.931641 34.077396 2.720612 4.414576 14.885270 21.920139 24.897038 -106.690254 -16.748426 19.877472 68.240906 -1.354147 -3.800345 -13.112561 -14.334906 -3.498570 -98.217186 -36.756893 17.446087 94.411552 -0.937426 4.517926 -49.844673 -16.221359 0.304361 
-2.039470 25.871519 0.000000 33.125000 -6.943359 -6.807822 3.164063 0.000000 0.000000 6.484375 -13.544922 -10.607756 -24.560547 3.349610 -4.238281 2.412109 2.919922 -0.897932 0.000000 0.000000 0.000000 -13.232421 -40.468746 -68.961418 -46.523441 -5.068359 4.169922 14.736329 -9.160156 37.654701 0.000000 0.000000 0.000000 -1.875000 45.800781 -64.931641 34.077396 2.720612 4.414576 15.591630 20.198088 22.541124 -107.710915 -15.000494 17.251692 73.707748 -1.032430 -3.959964 -17.575865 -12.475060 -4.290564 -96.406296 -33.924271 16.848745 95.985100 -1.289186 4.413232 -52.049622 -16.690207 0.532636 
-2.039470 26.576000 0.000000 33.251953 -6.191406 -6.875000 3.164063 0.000000 0.000000 6.484375 -13.544922 -10.607756 -25.117186 3.261719 -3.358819 2.412109 2.919922 -0.897932 0.000000 0.000000 0.000000 -14.443358 -38.837891 -66.636978 -48.818356 -4.980468 4.102410 16.054688 -9.902344 37.285156 0.000000 0.000000 0.000000 -1.875000 45.800781 -64.931641 34.077396 2.720612 4.414576 16.452490 18.513983 20.172520 -108.500908 -12.881376 14.431808 78.820450 -0.730688 -4.109394 -21.895498 -10.220739 -5.078591 -94.793037 -30.957026 16.860031 97.395851 -1.103243 4.526257 -54.218243 -17.374170 0.443335 
-2.039470 27.002577 0.000000 33.378906 -5.439453 -6.757813 3.164063 0.000000 0.000000 6.484375 -13.544922 -10.607756 -25.654297 2.978516 -2.548321 2.412109 2.919922 -0.722153 0.000000 0.000000 0.000000 -15.644531 -37.246094 -64.244194 -51.279293 -4.902344 4.034038 17.207031 -10.673829 36.933594 0.000000 0.000000 0.000000 -1.875000 45.800781 -64.931641 34.077396 2.720612 4.414576 17.330275 16.824574 17.805912 -109.517113 -11.113625 12.018412 84.088058 -0.389685 -4.208741 -26.018749 -8.108027 -5.405789 -93.188042 -28.290705 16.517019 98.970222 -1.259630 4.602727 -56.419373 -17.759567 0.599817 
-2.039470 27.131840 0.000000 33.525391 -4.707031 -6.816406 3.164063 0.000000 0.000000 6.484375 -13.544922 -10.607756 -26.220703 2.871094 -1.835938 2.431641 2.744141 -0.537109 0.000000 0.000000 0.000000 -16.699219 -35.634762 -62.076004 -53.564453 -4.814453 3.974610 18.701170 -11.396484 36.386719 0.000000 0.000000 0.000000 -1.875000 45.800781 -64.931641 34.077396 2.720612 4.414576 18.363989 15.130413 15.435046 -110.530296 -9.198836 9.103952 89.335564 -0.224554 -4.439867 -30.179846 -5.799016 -5.204362 -91.648178 -25.312151 15.791013 100.534904 -1.835661 4.224024 -58.625515 -18.296520 0.848551 
